<?xml version="1.0" encoding="UTF-8"?>
<svg width="418px" height="89px" viewBox="0 0 418 89" version="1.1" xmlns="http://www.w3.org/2000/svg" xmlns:xlink="http://www.w3.org/1999/xlink">
    <!-- Generator: Sketch 63.1 (92452) - https://sketch.com -->
    <title>logo/logo-blau</title>
    <desc>Created with Sketch.</desc>
    <g id="logo/logo-blau" stroke="none" stroke-width="1" fill="none" fill-rule="evenodd">
        <path d="M112.860352,34 L116.124512,19.8154297 L119.457031,34 L125.677734,34 L130.958496,9.1171875 L125.01123,9.1171875 L122.157227,24.7202148 L118.687988,9.1171875 L113.595215,9.1171875 L110.177246,24.7202148 L107.323242,9.1171875 L101.358887,9.1171875 L106.656738,34 L112.860352,34 Z M138.460938,34.3417969 C140.363607,34.3417969 141.844727,33.675293 142.904297,32.3422852 C143.063802,33.0714518 143.246094,33.6240234 143.451172,34 L143.451172,34 L149.210449,34 L149.210449,33.7094727 C148.709147,32.8094076 148.447103,31.5105794 148.424316,29.8129883 L148.424316,29.8129883 L148.424316,21.6269531 C148.390137,19.6217448 147.689453,18.0437826 146.322266,16.8930664 C144.955078,15.7423503 143.092285,15.1669922 140.733887,15.1669922 C138.375488,15.1669922 136.435791,15.7252604 134.914795,16.8417969 C133.393799,17.9583333 132.633301,19.4109701 132.633301,21.199707 L132.633301,21.199707 L138.392578,21.199707 C138.392578,19.855306 139.076172,19.1831055 140.443359,19.1831055 C141.913086,19.1831055 142.647949,20.031901 142.647949,21.7294922 L142.647949,21.7294922 L142.647949,22.7036133 L140.870605,22.7036133 C138.045085,22.7036133 135.891764,23.2163086 134.410645,24.2416992 C132.929525,25.2670898 132.188965,26.7823893 132.188965,28.7875977 C132.188965,30.3826497 132.798503,31.7071126 134.017578,32.7609863 C135.236654,33.81486 136.717773,34.3417969 138.460938,34.3417969 Z M139.845215,30.2402344 C139.29834,30.2402344 138.848307,30.0778809 138.495117,29.7531738 C138.141927,29.4284668 137.965332,29.004069 137.965332,28.4799805 C137.965332,26.6798503 138.967936,25.7797852 140.973145,25.7797852 L140.973145,25.7797852 L142.647949,25.7797852 L142.647949,28.7363281 C142.442871,29.1236979 142.103923,29.4711914 141.631104,29.7788086 C141.158285,30.0864258 140.562988,30.2402344 139.845215,30.2402344 Z M157.687012,34 L157.687012,7.75 L151.910645,7.75 L151.910645,34 L157.687012,34 Z M167.992188,34.3417969 C169.120117,34.3417969 170.202474,34.1765951 171.239258,33.8461914 L171.239258,33.8461914 L171.239258,29.7275391 C170.851888,29.7958984 170.373372,29.8300781 169.803711,29.8300781 C169.063151,29.8300781 168.567546,29.6933594 168.316895,29.4199219 C168.066243,29.1464844 167.940918,28.6622721 167.940918,27.9672852 L167.940918,27.9672852 L167.940918,19.5078125 L170.98291,19.5078125 L170.98291,15.5087891 L167.940918,15.5087891 L167.940918,10.9116211 L162.181641,10.9116211 L162.181641,15.5087891 L159.823242,15.5087891 L159.823242,19.5078125 L162.181641,19.5078125 L162.181641,28.6850586 C162.181641,30.5877279 162.65446,32.0061849 163.600098,32.9404297 C164.545736,33.8746745 166.009766,34.3417969 167.992188,34.3417969 Z M182.193848,34.3417969 C183.709147,34.3417969 185.124756,34.0484212 186.440674,33.4616699 C187.756592,32.8749186 188.773438,32.0859375 189.491211,31.0947266 L189.491211,31.0947266 L186.859375,27.984375 C185.833984,29.2604167 184.409831,29.8984375 182.586914,29.8984375 C181.481771,29.8984375 180.581706,29.6022135 179.886719,29.0097656 C179.191732,28.4173177 178.741699,27.6027018 178.536621,26.565918 L178.536621,26.565918 L189.986816,26.565918 L189.986816,24.3271484 C189.986816,21.4446615 189.234863,19.197347 187.730957,17.5852051 C186.227051,15.9730632 184.17627,15.1669922 181.578613,15.1669922 C179.73291,15.1669922 178.137858,15.5629069 176.793457,16.3547363 C175.449056,17.1465658 174.426514,18.2659505 173.72583,19.7128906 C173.025146,21.1598307 172.674805,22.8289388 172.674805,24.7202148 L172.674805,24.7202148 L172.674805,25.1987305 C172.674805,27.910319 173.552083,30.1120605 175.306641,31.8039551 C177.061198,33.4958496 179.356934,34.3417969 182.193848,34.3417969 Z M184.347168,22.9599609 L178.536621,22.9599609 C178.855632,20.726888 179.858236,19.6103516 181.544434,19.6103516 C182.455892,19.6103516 183.156576,19.8638509 183.646484,20.3708496 C184.136393,20.8778483 184.369954,21.5927734 184.347168,22.515625 L184.347168,22.9599609 Z M198.104492,34 L198.104492,22.293457 C198.617188,21.1541341 199.779297,20.5844727 201.59082,20.5844727 L201.59082,20.5844727 L203.487793,20.7211914 L203.590332,15.3720703 C203.134603,15.2353516 202.599121,15.1669922 201.983887,15.1669922 C200.252116,15.1669922 198.902018,16.0727539 197.933594,17.8842773 L197.933594,17.8842773 L197.745605,15.5087891 L192.345215,15.5087891 L192.345215,34 L198.104492,34 Z M224.64502,34 C227.675618,33.9772135 229.962809,33.3534342 231.506592,32.1286621 C233.050374,30.90389 233.822266,29.0724284 233.822266,26.6342773 C233.822266,25.2898763 233.474772,24.1505534 232.779785,23.2163086 C232.084798,22.2820638 231.087891,21.644043 229.789062,21.3022461 C230.939779,20.8693034 231.811361,20.1971029 232.403809,19.2856445 C232.996257,18.3741862 233.29248,17.2747396 233.29248,15.9873047 C233.29248,13.7542318 232.457926,12.050944 230.788818,10.8774414 C229.11971,9.7039388 226.684408,9.1171875 223.48291,9.1171875 L223.48291,9.1171875 L214.544922,9.1171875 L214.544922,34 L224.64502,34 Z M223.670898,19.4907227 L220.543457,19.4907227 L220.543457,13.7485352 L223.48291,13.7485352 C224.827311,13.7485352 225.801432,13.979248 226.405273,14.4406738 C227.009115,14.9020996 227.311035,15.656901 227.311035,16.7050781 C227.311035,17.6165365 227.031901,18.3058268 226.473633,18.7729492 C225.915365,19.2400716 224.98112,19.4793294 223.670898,19.4907227 L223.670898,19.4907227 Z M224.474121,29.3857422 L220.543457,29.3857422 L220.543457,23.4213867 L224.747559,23.4213867 C226.809733,23.4327799 227.84082,24.4752604 227.84082,26.5488281 C227.84082,27.4488932 227.550293,28.1467285 226.969238,28.642334 C226.388184,29.1379395 225.556478,29.3857422 224.474121,29.3857422 L224.474121,29.3857422 Z M245.067383,34.3417969 C247.801758,34.3417969 249.96932,33.4958496 251.570068,31.8039551 C253.170817,30.1120605 253.971191,27.8248698 253.971191,24.9423828 L253.971191,24.9423828 L253.971191,24.7373047 C253.971191,21.7864583 253.173665,19.4536947 251.578613,17.7390137 C249.983561,16.0243327 247.801758,15.1669922 245.033203,15.1669922 C243.22168,15.1669922 241.643717,15.554362 240.299316,16.3291016 C238.954915,17.1038411 237.923828,18.2118327 237.206055,19.6530762 C236.488281,21.0943197 236.129395,22.737793 236.129395,24.5834961 L236.129395,24.5834961 L236.146484,25.5576172 C236.27181,28.2578125 237.131999,30.3968913 238.727051,31.9748535 C240.322103,33.5528158 242.435547,34.3417969 245.067383,34.3417969 Z M245.067383,29.8984375 C244.019206,29.8984375 243.227376,29.4996745 242.691895,28.7021484 C242.156413,27.9046224 241.888672,26.6513672 241.888672,24.9423828 L241.888672,24.9423828 L241.905762,23.8999023 C242.065267,21.0402018 243.107747,19.6103516 245.033203,19.6103516 C247.152344,19.6103516 248.211914,21.2680664 248.211914,24.5834961 L248.211914,24.5834961 L248.211914,25.1645508 C248.166341,28.3204753 247.118164,29.8984375 245.067383,29.8984375 Z M259.662109,13.543457 C260.607747,13.543457 261.37679,13.2814128 261.969238,12.7573242 C262.561686,12.2332357 262.85791,11.5610352 262.85791,10.7407227 C262.85791,9.92041016 262.561686,9.24820964 261.969238,8.72412109 C261.37679,8.20003255 260.607747,7.93798828 259.662109,7.93798828 C258.716471,7.93798828 257.947428,8.20003255 257.35498,8.72412109 C256.762533,9.24820964 256.466309,9.92041016 256.466309,10.7407227 C256.466309,11.5610352 256.762533,12.2332357 257.35498,12.7573242 C257.947428,13.2814128 258.716471,13.543457 259.662109,13.543457 Z M262.584473,34 L262.584473,15.5087891 L256.808105,15.5087891 L256.808105,34 L262.584473,34 Z M271.932617,34 L271.932617,28.7363281 L273.556152,27.112793 L277.589355,34 L284.186035,34 L277.281738,23.1137695 L283.758789,15.5087891 L276.854492,15.5087891 L272.513672,20.9091797 L271.932617,21.6782227 L271.932617,7.73291016 L266.17334,7.73291016 L266.17334,34 L271.932617,34 Z M294.217773,34.3417969 C295.733073,34.3417969 297.148682,34.0484212 298.4646,33.4616699 C299.780518,32.8749186 300.797363,32.0859375 301.515137,31.0947266 L301.515137,31.0947266 L298.883301,27.984375 C297.85791,29.2604167 296.433757,29.8984375 294.61084,29.8984375 C293.505697,29.8984375 292.605632,29.6022135 291.910645,29.0097656 C291.215658,28.4173177 290.765625,27.6027018 290.560547,26.565918 L290.560547,26.565918 L302.010742,26.565918 L302.010742,24.3271484 C302.010742,21.4446615 301.258789,19.197347 299.754883,17.5852051 C298.250977,15.9730632 296.200195,15.1669922 293.602539,15.1669922 C291.756836,15.1669922 290.161784,15.5629069 288.817383,16.3547363 C287.472982,17.1465658 286.450439,18.2659505 285.749756,19.7128906 C285.049072,21.1598307 284.69873,22.8289388 284.69873,24.7202148 L284.69873,24.7202148 L284.69873,25.1987305 C284.69873,27.910319 285.576009,30.1120605 287.330566,31.8039551 C289.085124,33.4958496 291.380859,34.3417969 294.217773,34.3417969 Z M296.371094,22.9599609 L290.560547,22.9599609 C290.879557,20.726888 291.882161,19.6103516 293.568359,19.6103516 C294.479818,19.6103516 295.180501,19.8638509 295.67041,20.3708496 C296.160319,20.8778483 296.39388,21.5927734 296.371094,22.515625 L296.371094,22.9599609 Z" id="WalterBoike" fill="#003996" fill-rule="nonzero"></path>
        <path d="M107.104492,59.1855469 C108.601237,59.1855469 109.791829,58.8531087 110.67627,58.1882324 C111.56071,57.5233561 112.00293,56.6064453 112.00293,55.4375 C112.00293,54.3860677 111.641113,53.5078125 110.91748,52.8027344 C110.193848,52.0976562 109.040365,51.5069987 107.457031,51.0307617 C106.597331,50.7709961 105.94637,50.4926758 105.50415,50.1958008 C105.06193,49.8989258 104.84082,49.5309245 104.84082,49.0917969 C104.84082,48.6217448 105.02946,48.2429199 105.406738,47.9553223 C105.784017,47.6677246 106.312826,47.5239258 106.993164,47.5239258 C107.698242,47.5239258 108.245605,47.6955566 108.635254,48.0388184 C109.024902,48.3820801 109.219727,48.8629557 109.219727,49.4814453 L109.219727,49.4814453 L112.00293,49.4814453 C112.00293,48.671224 111.794189,47.9475911 111.376709,47.3105469 C110.959229,46.6735026 110.37321,46.1802572 109.618652,45.8308105 C108.864095,45.4813639 108.004395,45.3066406 107.039551,45.3066406 C106.080892,45.3066406 105.216553,45.4674479 104.446533,45.7890625 C103.676514,46.1106771 103.085856,46.5575358 102.674561,47.1296387 C102.263265,47.7017415 102.057617,48.3527018 102.057617,49.0825195 C102.057617,50.4864909 102.824544,51.6028646 104.358398,52.4316406 C104.921224,52.7347005 105.685059,53.0423991 106.649902,53.3547363 C107.614746,53.6670736 108.282715,53.9639486 108.653809,54.2453613 C109.024902,54.5267741 109.210449,54.9303385 109.210449,55.4560547 C109.210449,55.9384766 109.024902,56.314209 108.653809,56.583252 C108.282715,56.8522949 107.766276,56.9868164 107.104492,56.9868164 C105.323242,56.9868164 104.432617,56.2415365 104.432617,54.7509766 L104.432617,54.7509766 L101.640137,54.7509766 C101.640137,55.6230469 101.864339,56.389974 102.312744,57.0517578 C102.761149,57.7135417 103.412109,58.2346191 104.265625,58.6149902 C105.119141,58.9953613 106.06543,59.1855469 107.104492,59.1855469 Z M117.931152,59.1855469 C118.698079,59.1855469 119.398519,59.0293783 120.032471,58.717041 C120.666423,58.4047038 121.165853,57.9655762 121.530762,57.3996582 C121.895671,56.8337402 122.081217,56.210612 122.087402,55.5302734 L122.087402,55.5302734 L119.573242,55.5302734 C119.560872,55.9817708 119.400065,56.3435872 119.09082,56.6157227 C118.781576,56.8878581 118.379557,57.0239258 117.884766,57.0239258 C117.241536,57.0239258 116.762207,56.7981771 116.446777,56.3466797 C116.131348,55.8951823 115.973633,55.1529948 115.973633,54.1201172 L115.973633,54.1201172 L115.973633,53.8417969 C115.973633,52.8212891 116.132894,52.0837402 116.451416,51.6291504 C116.769938,51.1745605 117.241536,50.9472656 117.866211,50.9472656 C118.373372,50.9472656 118.781576,51.1096191 119.09082,51.4343262 C119.400065,51.7590332 119.560872,52.1811523 119.573242,52.7006836 L119.573242,52.7006836 L122.087402,52.7006836 C122.075033,51.5131836 121.690023,50.5622559 120.932373,49.8479004 C120.174723,49.1335449 119.168132,48.7763672 117.912598,48.7763672 C116.477702,48.7763672 115.348958,49.2371419 114.526367,50.1586914 C113.703776,51.0802409 113.29248,52.3141276 113.29248,53.8603516 L113.29248,53.8603516 L113.29248,54.0366211 C113.29248,55.644694 113.706868,56.9048665 114.535645,57.8171387 C115.364421,58.7294108 116.496257,59.1855469 117.931152,59.1855469 Z M126.234375,59 L126.234375,51.8657227 C126.586914,51.2596029 127.155924,50.956543 127.941406,50.956543 C128.516602,50.956543 128.927897,51.0941569 129.175293,51.3693848 C129.422689,51.6446126 129.546387,52.0698242 129.546387,52.6450195 L129.546387,52.6450195 L129.546387,59 L132.227539,59 L132.227539,52.5708008 C132.196615,50.0411784 131.092611,48.7763672 128.915527,48.7763672 C127.839355,48.7763672 126.945638,49.203125 126.234375,50.0566406 L126.234375,50.0566406 L126.234375,44.75 L123.553223,44.75 L123.553223,59 L126.234375,59 Z M137.07959,59 L137.07959,44.75 L134.38916,44.75 L134.38916,59 L137.07959,59 Z M143.629395,59.1855469 C145.07666,59.1855469 146.230143,58.7201335 147.089844,57.7893066 C147.949544,56.8584798 148.379395,55.6230469 148.379395,54.0830078 L148.379395,54.0830078 L148.36084,53.3964844 C148.261882,51.9739583 147.784098,50.8483073 146.92749,50.0195312 C146.070882,49.1907552 144.965332,48.7763672 143.61084,48.7763672 C142.658366,48.7763672 141.821859,48.9897461 141.101318,49.4165039 C140.380778,49.8432617 139.828776,50.4462891 139.445312,51.2255859 C139.061849,52.0048828 138.870117,52.8924154 138.870117,53.8881836 L138.870117,53.8881836 L138.870117,54.0087891 C138.870117,55.6044922 139.301514,56.8662109 140.164307,57.7939453 C141.0271,58.7216797 142.182129,59.1855469 143.629395,59.1855469 Z M143.629395,57.0239258 C142.961426,57.0239258 142.448079,56.7718913 142.089355,56.2678223 C141.730632,55.7637533 141.55127,55.0354818 141.55127,54.0830078 C141.55127,53.0130208 141.730632,52.2229004 142.089355,51.7126465 C142.448079,51.2023926 142.955241,50.9472656 143.61084,50.9472656 C144.272624,50.9472656 144.78597,51.2039388 145.150879,51.7172852 C145.515788,52.2306315 145.698242,52.9542643 145.698242,53.8881836 C145.698242,54.9829102 145.515788,55.7792155 145.150879,56.2770996 C144.78597,56.7749837 144.278809,57.0239258 143.629395,57.0239258 Z M153.853027,59.1855469 C155.096191,59.1855469 156.110514,58.9025879 156.895996,58.3366699 C157.681478,57.770752 158.074219,57.0301107 158.074219,56.1147461 C158.074219,54.8344727 157.366048,53.9345703 155.949707,53.4150391 C155.492025,53.2480469 154.929199,53.0980632 154.26123,52.9650879 C153.593262,52.8321126 153.118571,52.6743978 152.837158,52.4919434 C152.555745,52.3094889 152.415039,52.0698242 152.415039,51.7729492 C152.415039,51.4575195 152.538737,51.1977539 152.786133,50.9936523 C153.033529,50.7895508 153.382975,50.6875 153.834473,50.6875 C154.360189,50.6875 154.746745,50.8127441 154.994141,51.0632324 C155.241536,51.3137207 155.365234,51.6306966 155.365234,52.0141602 L155.365234,52.0141602 L158.046387,52.0141602 C158.046387,51.0555013 157.664469,50.2762044 156.900635,49.6762695 C156.1368,49.0763346 155.117839,48.7763672 153.84375,48.7763672 C152.650065,48.7763672 151.683675,49.0747884 150.94458,49.6716309 C150.205485,50.2684733 149.835938,51.012207 149.835938,51.902832 C149.835938,53.4305013 151.029622,54.4448242 153.416992,54.9458008 C154.13444,55.0942383 154.655518,55.2627767 154.980225,55.451416 C155.304932,55.6400553 155.467285,55.8982747 155.467285,56.2260742 C155.467285,56.5415039 155.335856,56.7966309 155.072998,56.9914551 C154.81014,57.1862793 154.422038,57.2836914 153.908691,57.2836914 C153.358236,57.2836914 152.919108,57.156901 152.591309,56.9033203 C152.263509,56.6497396 152.08724,56.2848307 152.0625,55.8085938 L152.0625,55.8085938 L149.520508,55.8085938 C149.520508,56.4147135 149.706055,56.9790853 150.077148,57.501709 C150.448242,58.0243327 150.960042,58.4356283 151.612549,58.7355957 C152.265055,59.0355632 153.011882,59.1855469 153.853027,59.1855469 Z M163.62207,59.1855469 C164.865234,59.1855469 165.879557,58.9025879 166.665039,58.3366699 C167.450521,57.770752 167.843262,57.0301107 167.843262,56.1147461 C167.843262,54.8344727 167.135091,53.9345703 165.71875,53.4150391 C165.261068,53.2480469 164.698242,53.0980632 164.030273,52.9650879 C163.362305,52.8321126 162.887614,52.6743978 162.606201,52.4919434 C162.324788,52.3094889 162.184082,52.0698242 162.184082,51.7729492 C162.184082,51.4575195 162.30778,51.1977539 162.555176,50.9936523 C162.802572,50.7895508 163.152018,50.6875 163.603516,50.6875 C164.129232,50.6875 164.515788,50.8127441 164.763184,51.0632324 C165.010579,51.3137207 165.134277,51.6306966 165.134277,52.0141602 L165.134277,52.0141602 L167.81543,52.0141602 C167.81543,51.0555013 167.433512,50.2762044 166.669678,49.6762695 C165.905843,49.0763346 164.886882,48.7763672 163.612793,48.7763672 C162.419108,48.7763672 161.452718,49.0747884 160.713623,49.6716309 C159.974528,50.2684733 159.60498,51.012207 159.60498,51.902832 C159.60498,53.4305013 160.798665,54.4448242 163.186035,54.9458008 C163.903483,55.0942383 164.424561,55.2627767 164.749268,55.451416 C165.073975,55.6400553 165.236328,55.8982747 165.236328,56.2260742 C165.236328,56.5415039 165.104899,56.7966309 164.842041,56.9914551 C164.579183,57.1862793 164.191081,57.2836914 163.677734,57.2836914 C163.127279,57.2836914 162.688151,57.156901 162.360352,56.9033203 C162.032552,56.6497396 161.856283,56.2848307 161.831543,55.8085938 L161.831543,55.8085938 L159.289551,55.8085938 C159.289551,56.4147135 159.475098,56.9790853 159.846191,57.501709 C160.217285,58.0243327 160.729085,58.4356283 161.381592,58.7355957 C162.034098,59.0355632 162.780924,59.1855469 163.62207,59.1855469 Z M174.188965,59.1855469 C175.023926,59.1855469 175.784668,59.0262858 176.471191,58.7077637 C177.157715,58.3892415 177.701986,57.9454753 178.104004,57.3764648 L178.104004,57.3764648 L176.786621,55.9013672 C176.205241,56.6497396 175.398112,57.0239258 174.365234,57.0239258 C173.697266,57.0239258 173.145264,56.8260091 172.709229,56.4301758 C172.273193,56.0343424 172.011882,55.5086263 171.925293,54.8530273 L171.925293,54.8530273 L178.317383,54.8530273 L178.317383,53.7583008 C178.317383,52.1687826 177.923096,50.9410807 177.134521,50.0751953 C176.345947,49.2093099 175.265137,48.7763672 173.89209,48.7763672 C172.976725,48.7763672 172.161865,48.9912923 171.44751,49.4211426 C170.733154,49.8509928 170.181152,50.4632975 169.791504,51.2580566 C169.401855,52.0528158 169.207031,52.9542643 169.207031,53.9624023 L169.207031,53.9624023 L169.207031,54.222168 C169.207031,55.7250977 169.669352,56.9280599 170.593994,57.8310547 C171.518636,58.7340495 172.71696,59.1855469 174.188965,59.1855469 Z M175.682617,53.0253906 L171.953125,53.0253906 C172.045898,52.3574219 172.257731,51.8440755 172.588623,51.4853516 C172.919515,51.1266276 173.350911,50.9472656 173.882812,50.9472656 C174.451823,50.9472656 174.890951,51.1096191 175.200195,51.4343262 C175.50944,51.7590332 175.670247,52.2182617 175.682617,52.8120117 L175.682617,52.8120117 L175.682617,53.0253906 Z M182.52002,59 L182.52002,52.4316406 C182.835449,51.7451172 183.500326,51.4018555 184.514648,51.4018555 C184.792969,51.4018555 185.114583,51.4265951 185.479492,51.4760742 L185.479492,51.4760742 L185.516602,48.8969727 C185.256836,48.816569 184.978516,48.7763672 184.681641,48.7763672 C183.729167,48.7763672 182.983887,49.2371419 182.445801,50.1586914 L182.445801,50.1586914 L182.371582,48.9619141 L179.838867,48.9619141 L179.838867,59 L182.52002,59 Z M191.38916,59.1855469 C192.224121,59.1855469 192.984863,59.0262858 193.671387,58.7077637 C194.35791,58.3892415 194.902181,57.9454753 195.304199,57.3764648 L195.304199,57.3764648 L193.986816,55.9013672 C193.405436,56.6497396 192.598307,57.0239258 191.56543,57.0239258 C190.897461,57.0239258 190.345459,56.8260091 189.909424,56.4301758 C189.473389,56.0343424 189.212077,55.5086263 189.125488,54.8530273 L189.125488,54.8530273 L195.517578,54.8530273 L195.517578,53.7583008 C195.517578,52.1687826 195.123291,50.9410807 194.334717,50.0751953 C193.546143,49.2093099 192.465332,48.7763672 191.092285,48.7763672 C190.176921,48.7763672 189.362061,48.9912923 188.647705,49.4211426 C187.93335,49.8509928 187.381348,50.4632975 186.991699,51.2580566 C186.602051,52.0528158 186.407227,52.9542643 186.407227,53.9624023 L186.407227,53.9624023 L186.407227,54.222168 C186.407227,55.7250977 186.869548,56.9280599 187.794189,57.8310547 C188.718831,58.7340495 189.917155,59.1855469 191.38916,59.1855469 Z M192.882812,53.0253906 L189.15332,53.0253906 C189.246094,52.3574219 189.457926,51.8440755 189.788818,51.4853516 C190.11971,51.1266276 190.551107,50.9472656 191.083008,50.9472656 C191.652018,50.9472656 192.091146,51.1096191 192.400391,51.4343262 C192.709635,51.7590332 192.870443,52.2182617 192.882812,52.8120117 L192.882812,52.8120117 L192.882812,53.0253906 Z M198.523438,47.7558594 C198.974935,47.7558594 199.338298,47.6259766 199.613525,47.3662109 C199.888753,47.1064453 200.026367,46.7724609 200.026367,46.3642578 C200.026367,45.9622396 199.890299,45.6313477 199.618164,45.371582 C199.346029,45.1118164 198.98112,44.9819336 198.523438,44.9819336 C198.05957,44.9819336 197.693115,45.1118164 197.424072,45.371582 C197.155029,45.6313477 197.020508,45.9622396 197.020508,46.3642578 C197.020508,46.7724609 197.158122,47.1064453 197.43335,47.3662109 C197.708577,47.6259766 198.07194,47.7558594 198.523438,47.7558594 Z M199.868652,59 L199.868652,48.9619141 L197.178223,48.9619141 L197.178223,59 L199.868652,59 Z M210.07373,59.1855469 C211.242676,59.1855469 212.15804,58.7835286 212.819824,57.9794922 L212.819824,57.9794922 L212.894043,59 L215.41748,59 L215.41748,48.9619141 L212.727051,48.9619141 L212.727051,56.0683594 C212.386882,56.6992188 211.762207,57.0146484 210.853027,57.0146484 C209.900553,57.0146484 209.424316,56.4920247 209.424316,55.4467773 L209.424316,55.4467773 L209.424316,48.9619141 L206.743164,48.9619141 L206.743164,55.5395508 C206.755534,56.7332357 207.044678,57.6393229 207.610596,58.2578125 C208.176514,58.8763021 208.997559,59.1855469 210.07373,59.1855469 Z M220.06543,59 L220.06543,51.9213867 C220.442708,51.2781576 221.008626,50.956543 221.763184,50.956543 C222.338379,50.956543 222.749674,51.0848796 222.99707,51.3415527 C223.244466,51.5982259 223.368164,52.0110677 223.368164,52.5800781 L223.368164,52.5800781 L223.368164,59 L226.049316,59 L226.049316,52.5151367 C226.036947,51.2719727 225.770996,50.3380534 225.251465,49.7133789 C224.731934,49.0887044 223.940267,48.7763672 222.876465,48.7763672 C221.67041,48.7763672 220.708659,49.2247721 219.991211,50.121582 L219.991211,50.121582 L219.907715,48.9619141 L217.384277,48.9619141 L217.384277,59 L220.06543,59 Z M231.578613,59.1855469 C232.630046,59.1855469 233.489746,58.7680664 234.157715,57.9331055 L234.157715,57.9331055 L234.287598,59 L236.708984,59 L236.708984,44.75 L234.018555,44.75 L234.018555,49.8710938 C233.38151,49.141276 232.574382,48.7763672 231.597168,48.7763672 C230.378743,48.7763672 229.418538,49.2402344 228.716553,50.1679688 C228.014567,51.0957031 227.663574,52.3419596 227.663574,53.9067383 C227.663574,55.5642904 228.020752,56.8584798 228.735107,57.7893066 C229.449463,58.7201335 230.397298,59.1855469 231.578613,59.1855469 Z M232.265137,57.0146484 C231.640462,57.0146484 231.164225,56.7641602 230.836426,56.2631836 C230.508626,55.762207 230.344727,55.0416667 230.344727,54.1015625 C230.344727,52.0048828 230.991048,50.956543 232.283691,50.956543 C233.106283,50.956543 233.68457,51.3059896 234.018555,52.0048828 L234.018555,52.0048828 L234.018555,55.9663086 C233.678385,56.6652018 233.093913,57.0146484 232.265137,57.0146484 Z M253.45459,59 L253.45459,56.7641602 L246.64502,56.7641602 L253.306152,47.0878906 L253.306152,45.4921875 L243.175293,45.4921875 L243.175293,47.746582 L249.845703,47.746582 L243.166016,57.3671875 L243.166016,59 L253.45459,59 Z M259.651855,59.1855469 C260.486816,59.1855469 261.247559,59.0262858 261.934082,58.7077637 C262.620605,58.3892415 263.164876,57.9454753 263.566895,57.3764648 L263.566895,57.3764648 L262.249512,55.9013672 C261.668132,56.6497396 260.861003,57.0239258 259.828125,57.0239258 C259.160156,57.0239258 258.608154,56.8260091 258.172119,56.4301758 C257.736084,56.0343424 257.474772,55.5086263 257.388184,54.8530273 L257.388184,54.8530273 L263.780273,54.8530273 L263.780273,53.7583008 C263.780273,52.1687826 263.385986,50.9410807 262.597412,50.0751953 C261.808838,49.2093099 260.728027,48.7763672 259.35498,48.7763672 C258.439616,48.7763672 257.624756,48.9912923 256.9104,49.4211426 C256.196045,49.8509928 255.644043,50.4632975 255.254395,51.2580566 C254.864746,52.0528158 254.669922,52.9542643 254.669922,53.9624023 L254.669922,53.9624023 L254.669922,54.222168 C254.669922,55.7250977 255.132243,56.9280599 256.056885,57.8310547 C256.981527,58.7340495 258.17985,59.1855469 259.651855,59.1855469 Z M261.145508,53.0253906 L257.416016,53.0253906 C257.508789,52.3574219 257.720622,51.8440755 258.051514,51.4853516 C258.382406,51.1266276 258.813802,50.9472656 259.345703,50.9472656 C259.914714,50.9472656 260.353841,51.1096191 260.663086,51.4343262 C260.972331,51.7590332 261.133138,52.2182617 261.145508,52.8120117 L261.145508,52.8120117 L261.145508,53.0253906 Z M267.98291,59 L267.98291,52.4316406 C268.29834,51.7451172 268.963216,51.4018555 269.977539,51.4018555 C270.255859,51.4018555 270.577474,51.4265951 270.942383,51.4760742 L270.942383,51.4760742 L270.979492,48.8969727 C270.719727,48.816569 270.441406,48.7763672 270.144531,48.7763672 C269.192057,48.7763672 268.446777,49.2371419 267.908691,50.1586914 L267.908691,50.1586914 L267.834473,48.9619141 L265.301758,48.9619141 L265.301758,59 L267.98291,59 Z M276.054199,59.1855469 C277.297363,59.1855469 278.311686,58.9025879 279.097168,58.3366699 C279.88265,57.770752 280.275391,57.0301107 280.275391,56.1147461 C280.275391,54.8344727 279.56722,53.9345703 278.150879,53.4150391 C277.693197,53.2480469 277.130371,53.0980632 276.462402,52.9650879 C275.794434,52.8321126 275.319743,52.6743978 275.03833,52.4919434 C274.756917,52.3094889 274.616211,52.0698242 274.616211,51.7729492 C274.616211,51.4575195 274.739909,51.1977539 274.987305,50.9936523 C275.234701,50.7895508 275.584147,50.6875 276.035645,50.6875 C276.561361,50.6875 276.947917,50.8127441 277.195312,51.0632324 C277.442708,51.3137207 277.566406,51.6306966 277.566406,52.0141602 L277.566406,52.0141602 L280.247559,52.0141602 C280.247559,51.0555013 279.865641,50.2762044 279.101807,49.6762695 C278.337972,49.0763346 277.31901,48.7763672 276.044922,48.7763672 C274.851237,48.7763672 273.884847,49.0747884 273.145752,49.6716309 C272.406657,50.2684733 272.037109,51.012207 272.037109,51.902832 C272.037109,53.4305013 273.230794,54.4448242 275.618164,54.9458008 C276.335612,55.0942383 276.856689,55.2627767 277.181396,55.451416 C277.506104,55.6400553 277.668457,55.8982747 277.668457,56.2260742 C277.668457,56.5415039 277.537028,56.7966309 277.27417,56.9914551 C277.011312,57.1862793 276.62321,57.2836914 276.109863,57.2836914 C275.559408,57.2836914 275.12028,57.156901 274.79248,56.9033203 C274.464681,56.6497396 274.288411,56.2848307 274.263672,55.8085938 L274.263672,55.8085938 L271.72168,55.8085938 C271.72168,56.4147135 271.907227,56.9790853 272.27832,57.501709 C272.649414,58.0243327 273.161214,58.4356283 273.813721,58.7355957 C274.466227,59.0355632 275.213053,59.1855469 276.054199,59.1855469 Z M284.682129,62.859375 L284.682129,58.1279297 C285.306803,58.8330078 286.126302,59.1855469 287.140625,59.1855469 C288.33431,59.1855469 289.282145,58.7201335 289.984131,57.7893066 C290.686117,56.8584798 291.037109,55.6199544 291.037109,54.0737305 L291.037109,54.0737305 L291.037109,53.9345703 C291.037109,52.3264974 290.693848,51.0647786 290.007324,50.1494141 C289.320801,49.2340495 288.359049,48.7763672 287.12207,48.7763672 C286.076823,48.7763672 285.229492,49.1660156 284.580078,49.9453125 L284.580078,49.9453125 L284.487305,48.9619141 L282.000977,48.9619141 L282.000977,62.859375 L284.682129,62.859375 Z M286.435547,57.0239258 C285.594401,57.0239258 285.009928,56.6930339 284.682129,56.03125 L284.682129,56.03125 L284.682129,51.9213867 C284.997559,51.2781576 285.575846,50.956543 286.416992,50.956543 C287.047852,50.956543 287.528727,51.2101237 287.859619,51.7172852 C288.190511,52.2244466 288.355957,52.944987 288.355957,53.8789062 C288.355957,55.9755859 287.71582,57.0239258 286.435547,57.0239258 Z M295.712891,59.1855469 C296.751953,59.1855469 297.596191,58.8237305 298.245605,58.1000977 C298.30127,58.4588216 298.390951,58.7587891 298.514648,59 L298.514648,59 L301.223633,59 L301.223633,58.8422852 C300.963867,58.3536784 300.830892,57.633138 300.824707,56.6806641 L300.824707,56.6806641 L300.824707,52.3295898 C300.824707,51.2039388 300.461344,50.3303223 299.734619,49.7087402 C299.007894,49.0871582 298.026042,48.7763672 296.789062,48.7763672 C295.972656,48.7763672 295.236654,48.9170736 294.581055,49.1984863 C293.925456,49.4798991 293.418294,49.8680013 293.05957,50.362793 C292.700846,50.8575846 292.521484,51.3956706 292.521484,51.9770508 L292.521484,51.9770508 L295.202637,51.9770508 C295.202637,51.5997721 295.330973,51.3028971 295.587646,51.0864258 C295.84432,50.8699544 296.198405,50.7617188 296.649902,50.7617188 C297.163249,50.7617188 297.538981,50.9008789 297.7771,51.1791992 C298.015218,51.4575195 298.134277,51.8286133 298.134277,52.2924805 L298.134277,52.2924805 L298.134277,52.8676758 L296.900391,52.8676758 C295.409831,52.8738607 294.270264,53.1614583 293.481689,53.7304688 C292.693115,54.2994792 292.298828,55.1158854 292.298828,56.1796875 C292.298828,57.0455729 292.621989,57.7630208 293.268311,58.3320312 C293.914632,58.9010417 294.729492,59.1855469 295.712891,59.1855469 Z M296.297363,57.1352539 C295.88916,57.1352539 295.567546,57.0270182 295.33252,56.8105469 C295.097493,56.5940755 294.97998,56.3188477 294.97998,55.9848633 L294.97998,55.9848633 L294.989258,55.8271484 C295.075846,54.8994141 295.790202,54.4355469 297.132324,54.4355469 L297.132324,54.4355469 L298.134277,54.4355469 L298.134277,56.1611328 C297.97347,56.4580078 297.726074,56.6945801 297.39209,56.8708496 C297.058105,57.0471191 296.693197,57.1352539 296.297363,57.1352539 Z M305.509766,59 L305.509766,51.9213867 C305.887044,51.2781576 306.452962,50.956543 307.20752,50.956543 C307.782715,50.956543 308.19401,51.0848796 308.441406,51.3415527 C308.688802,51.5982259 308.8125,52.0110677 308.8125,52.5800781 L308.8125,52.5800781 L308.8125,59 L311.493652,59 L311.493652,52.5151367 C311.481283,51.2719727 311.215332,50.3380534 310.695801,49.7133789 C310.17627,49.0887044 309.384603,48.7763672 308.320801,48.7763672 C307.114746,48.7763672 306.152995,49.2247721 305.435547,50.121582 L305.435547,50.121582 L305.352051,48.9619141 L302.828613,48.9619141 L302.828613,59 L305.509766,59 Z M316.791016,59.1855469 C317.959961,59.1855469 318.875326,58.7835286 319.537109,57.9794922 L319.537109,57.9794922 L319.611328,59 L322.134766,59 L322.134766,48.9619141 L319.444336,48.9619141 L319.444336,56.0683594 C319.104167,56.6992188 318.479492,57.0146484 317.570312,57.0146484 C316.617839,57.0146484 316.141602,56.4920247 316.141602,55.4467773 L316.141602,55.4467773 L316.141602,48.9619141 L313.460449,48.9619141 L313.460449,55.5395508 C313.472819,56.7332357 313.761963,57.6393229 314.327881,58.2578125 C314.893799,58.8763021 315.714844,59.1855469 316.791016,59.1855469 Z M326.782715,59 L326.782715,51.9213867 C327.159993,51.2781576 327.725911,50.956543 328.480469,50.956543 C329.055664,50.956543 329.46696,51.0848796 329.714355,51.3415527 C329.961751,51.5982259 330.085449,52.0110677 330.085449,52.5800781 L330.085449,52.5800781 L330.085449,59 L332.766602,59 L332.766602,52.5151367 C332.754232,51.2719727 332.488281,50.3380534 331.96875,49.7133789 C331.449219,49.0887044 330.657552,48.7763672 329.59375,48.7763672 C328.387695,48.7763672 327.425944,49.2247721 326.708496,50.121582 L326.708496,50.121582 L326.625,48.9619141 L324.101562,48.9619141 L324.101562,59 L326.782715,59 Z M338.759766,62.9521484 C339.730794,62.9521484 340.578125,62.7820638 341.301758,62.4418945 C342.025391,62.1017253 342.58667,61.6069336 342.985596,60.9575195 C343.384521,60.3081055 343.583984,59.5442708 343.583984,58.6660156 L343.583984,58.6660156 L343.583984,48.9619141 L341.15332,48.9619141 L341.041992,49.9082031 C340.429688,49.1536458 339.573079,48.7763672 338.472168,48.7763672 C337.229004,48.7763672 336.240967,49.2464193 335.508057,50.1865234 C334.775146,51.1266276 334.408691,52.3666992 334.408691,53.9067383 L334.408691,53.9067383 L334.408691,54.0180664 C334.408691,55.5766602 334.781331,56.8275553 335.526611,57.770752 C336.271891,58.7139486 337.247559,59.1855469 338.453613,59.1855469 C339.461751,59.1855469 340.275065,58.8361003 340.893555,58.137207 L340.893555,58.137207 L340.893555,58.675293 C340.893555,59.3741862 340.695638,59.9138184 340.299805,60.2941895 C339.903971,60.6745605 339.350423,60.8647461 338.63916,60.8647461 C337.686686,60.8647461 336.876465,60.4905599 336.208496,59.7421875 L336.208496,59.7421875 L335.020996,61.375 C335.37972,61.8388672 335.908529,62.2176921 336.607422,62.5114746 C337.306315,62.8052572 338.023763,62.9521484 338.759766,62.9521484 Z M339.140137,57.0146484 C338.503092,57.0146484 338.002116,56.756429 337.637207,56.2399902 C337.272298,55.7235514 337.089844,55.0107422 337.089844,54.1015625 C337.089844,53.0563151 337.273844,52.2708333 337.641846,51.7451172 C338.009847,51.219401 338.515462,50.956543 339.158691,50.956543 C339.956543,50.956543 340.534831,51.2626953 340.893555,51.875 L340.893555,51.875 L340.893555,56.0961914 C340.541016,56.7084961 339.956543,57.0146484 339.140137,57.0146484 Z M349.46582,59.1855469 C350.708984,59.1855469 351.723307,58.9025879 352.508789,58.3366699 C353.294271,57.770752 353.687012,57.0301107 353.687012,56.1147461 C353.687012,54.8344727 352.978841,53.9345703 351.5625,53.4150391 C351.104818,53.2480469 350.541992,53.0980632 349.874023,52.9650879 C349.206055,52.8321126 348.731364,52.6743978 348.449951,52.4919434 C348.168538,52.3094889 348.027832,52.0698242 348.027832,51.7729492 C348.027832,51.4575195 348.15153,51.1977539 348.398926,50.9936523 C348.646322,50.7895508 348.995768,50.6875 349.447266,50.6875 C349.972982,50.6875 350.359538,50.8127441 350.606934,51.0632324 C350.854329,51.3137207 350.978027,51.6306966 350.978027,52.0141602 L350.978027,52.0141602 L353.65918,52.0141602 C353.65918,51.0555013 353.277262,50.2762044 352.513428,49.6762695 C351.749593,49.0763346 350.730632,48.7763672 349.456543,48.7763672 C348.262858,48.7763672 347.296468,49.0747884 346.557373,49.6716309 C345.818278,50.2684733 345.44873,51.012207 345.44873,51.902832 C345.44873,53.4305013 346.642415,54.4448242 349.029785,54.9458008 C349.747233,55.0942383 350.268311,55.2627767 350.593018,55.451416 C350.917725,55.6400553 351.080078,55.8982747 351.080078,56.2260742 C351.080078,56.5415039 350.948649,56.7966309 350.685791,56.9914551 C350.422933,57.1862793 350.034831,57.2836914 349.521484,57.2836914 C348.971029,57.2836914 348.531901,57.156901 348.204102,56.9033203 C347.876302,56.6497396 347.700033,56.2848307 347.675293,55.8085938 L347.675293,55.8085938 L345.133301,55.8085938 C345.133301,56.4147135 345.318848,56.9790853 345.689941,57.501709 C346.061035,58.0243327 346.572835,58.4356283 347.225342,58.7355957 C347.877848,59.0355632 348.624674,59.1855469 349.46582,59.1855469 Z M358.817383,59.1855469 C359.374023,59.1855469 359.915202,59.1051432 360.440918,58.9443359 L360.440918,58.9443359 L360.440918,56.9125977 C360.212077,56.9558919 359.949219,56.9775391 359.652344,56.9775391 C359.250326,56.9775391 358.97819,56.8971354 358.835938,56.7363281 C358.693685,56.5755208 358.622559,56.3095703 358.622559,55.9384766 L358.622559,55.9384766 L358.622559,50.9287109 L360.338867,50.9287109 L360.338867,48.9619141 L358.622559,48.9619141 L358.622559,46.4941406 L355.941406,46.4941406 L355.941406,48.9619141 L354.475586,48.9619141 L354.475586,50.9287109 L355.941406,50.9287109 L355.941406,56.3374023 C355.978516,58.2361654 356.937174,59.1855469 358.817383,59.1855469 Z M366.452637,59.1855469 C367.287598,59.1855469 368.04834,59.0262858 368.734863,58.7077637 C369.421387,58.3892415 369.965658,57.9454753 370.367676,57.3764648 L370.367676,57.3764648 L369.050293,55.9013672 C368.468913,56.6497396 367.661784,57.0239258 366.628906,57.0239258 C365.960938,57.0239258 365.408936,56.8260091 364.9729,56.4301758 C364.536865,56.0343424 364.275553,55.5086263 364.188965,54.8530273 L364.188965,54.8530273 L370.581055,54.8530273 L370.581055,53.7583008 C370.581055,52.1687826 370.186768,50.9410807 369.398193,50.0751953 C368.609619,49.2093099 367.528809,48.7763672 366.155762,48.7763672 C365.240397,48.7763672 364.425537,48.9912923 363.711182,49.4211426 C362.996826,49.8509928 362.444824,50.4632975 362.055176,51.2580566 C361.665527,52.0528158 361.470703,52.9542643 361.470703,53.9624023 L361.470703,53.9624023 L361.470703,54.222168 C361.470703,55.7250977 361.933024,56.9280599 362.857666,57.8310547 C363.782308,58.7340495 364.980632,59.1855469 366.452637,59.1855469 Z M367.946289,53.0253906 L364.216797,53.0253906 C364.30957,52.3574219 364.521403,51.8440755 364.852295,51.4853516 C365.183187,51.1266276 365.614583,50.9472656 366.146484,50.9472656 C366.715495,50.9472656 367.154622,51.1096191 367.463867,51.4343262 C367.773112,51.7590332 367.933919,52.2182617 367.946289,52.8120117 L367.946289,52.8120117 L367.946289,53.0253906 Z M376.32373,59.1855469 C377.090658,59.1855469 377.791097,59.0293783 378.425049,58.717041 C379.059001,58.4047038 379.558431,57.9655762 379.92334,57.3996582 C380.288249,56.8337402 380.473796,56.210612 380.47998,55.5302734 L380.47998,55.5302734 L377.96582,55.5302734 C377.953451,55.9817708 377.792643,56.3435872 377.483398,56.6157227 C377.174154,56.8878581 376.772135,57.0239258 376.277344,57.0239258 C375.634115,57.0239258 375.154785,56.7981771 374.839355,56.3466797 C374.523926,55.8951823 374.366211,55.1529948 374.366211,54.1201172 L374.366211,54.1201172 L374.366211,53.8417969 C374.366211,52.8212891 374.525472,52.0837402 374.843994,51.6291504 C375.162516,51.1745605 375.634115,50.9472656 376.258789,50.9472656 C376.765951,50.9472656 377.174154,51.1096191 377.483398,51.4343262 C377.792643,51.7590332 377.953451,52.1811523 377.96582,52.7006836 L377.96582,52.7006836 L380.47998,52.7006836 C380.467611,51.5131836 380.082601,50.5622559 379.324951,49.8479004 C378.567301,49.1335449 377.56071,48.7763672 376.305176,48.7763672 C374.87028,48.7763672 373.741536,49.2371419 372.918945,50.1586914 C372.096354,51.0802409 371.685059,52.3141276 371.685059,53.8603516 L371.685059,53.8603516 L371.685059,54.0366211 C371.685059,55.644694 372.099447,56.9048665 372.928223,57.8171387 C373.756999,58.7294108 374.888835,59.1855469 376.32373,59.1855469 Z M384.626953,59 L384.626953,51.8657227 C384.979492,51.2596029 385.548503,50.956543 386.333984,50.956543 C386.90918,50.956543 387.320475,51.0941569 387.567871,51.3693848 C387.815267,51.6446126 387.938965,52.0698242 387.938965,52.6450195 L387.938965,52.6450195 L387.938965,59 L390.620117,59 L390.620117,52.5708008 C390.589193,50.0411784 389.485189,48.7763672 387.308105,48.7763672 C386.231934,48.7763672 385.338216,49.203125 384.626953,50.0566406 L384.626953,50.0566406 L384.626953,44.75 L381.945801,44.75 L381.945801,59 L384.626953,59 Z M395.268066,59 L395.268066,51.9213867 C395.645345,51.2781576 396.211263,50.956543 396.96582,50.956543 C397.541016,50.956543 397.952311,51.0848796 398.199707,51.3415527 C398.447103,51.5982259 398.570801,52.0110677 398.570801,52.5800781 L398.570801,52.5800781 L398.570801,59 L401.251953,59 L401.251953,52.5151367 C401.239583,51.2719727 400.973633,50.3380534 400.454102,49.7133789 C399.93457,49.0887044 399.142904,48.7763672 398.079102,48.7763672 C396.873047,48.7763672 395.911296,49.2247721 395.193848,50.121582 L395.193848,50.121582 L395.110352,48.9619141 L392.586914,48.9619141 L392.586914,59 L395.268066,59 Z M404.768066,47.7558594 C405.219564,47.7558594 405.582926,47.6259766 405.858154,47.3662109 C406.133382,47.1064453 406.270996,46.7724609 406.270996,46.3642578 C406.270996,45.9622396 406.134928,45.6313477 405.862793,45.371582 C405.590658,45.1118164 405.225749,44.9819336 404.768066,44.9819336 C404.304199,44.9819336 403.937744,45.1118164 403.668701,45.371582 C403.399658,45.6313477 403.265137,45.9622396 403.265137,46.3642578 C403.265137,46.7724609 403.402751,47.1064453 403.677979,47.3662109 C403.953206,47.6259766 404.316569,47.7558594 404.768066,47.7558594 Z M406.113281,59 L406.113281,48.9619141 L403.422852,48.9619141 L403.422852,59 L406.113281,59 Z M411.002441,59 L411.002441,55.9384766 L411.967285,54.9736328 L414.546387,59 L417.626465,59 L413.683594,53.1459961 L417.311035,48.9619141 L414.091797,48.9619141 L411.521973,51.9770508 L411.002441,52.6450195 L411.002441,44.75 L408.321289,44.75 L408.321289,59 L411.002441,59 Z" id="SchlossereiundZerspanungstechnik" fill="#003996" fill-rule="nonzero"></path>
        <path d="M102.929688,82 L102.929688,70.625 L101.429688,70.625 L101.429688,82 L102.929688,82 Z M106.890625,82 L106.890625,75.9765625 C107.088542,75.5703125 107.364583,75.2421875 107.71875,74.9921875 C108.072917,74.7421875 108.484375,74.6171875 108.953125,74.6171875 C109.53125,74.6171875 109.957031,74.7630208 110.230469,75.0546875 C110.503906,75.3463542 110.643229,75.796875 110.648438,76.40625 L110.648438,76.40625 L110.648438,82 L112.09375,82 L112.09375,76.4140625 C112.078125,74.3984375 111.177083,73.390625 109.390625,73.390625 C108.348958,73.390625 107.505208,73.796875 106.859375,74.609375 L106.859375,74.609375 L106.8125,73.546875 L105.445312,73.546875 L105.445312,82 L106.890625,82 Z M115.71875,82 L115.71875,75.9765625 C115.916667,75.5703125 116.192708,75.2421875 116.546875,74.9921875 C116.901042,74.7421875 117.3125,74.6171875 117.78125,74.6171875 C118.359375,74.6171875 118.785156,74.7630208 119.058594,75.0546875 C119.332031,75.3463542 119.471354,75.796875 119.476562,76.40625 L119.476562,76.40625 L119.476562,82 L120.921875,82 L120.921875,76.4140625 C120.90625,74.3984375 120.005208,73.390625 118.21875,73.390625 C117.192708,73.390625 116.359375,73.7838542 115.71875,74.5703125 L115.71875,74.5703125 L115.71875,70 L114.273438,70 L114.273438,82 L115.71875,82 Z M124.007812,82.0859375 C124.304688,82.0859375 124.529948,82.0052083 124.683594,81.84375 C124.83724,81.6822917 124.914062,81.4817708 124.914062,81.2421875 C124.914062,80.9921875 124.83724,80.7838542 124.683594,80.6171875 C124.529948,80.4505208 124.304688,80.3671875 124.007812,80.3671875 C123.710938,80.3671875 123.488281,80.4505208 123.339844,80.6171875 C123.191406,80.7838542 123.117188,80.9921875 123.117188,81.2421875 C123.117188,81.4817708 123.191406,81.6822917 123.339844,81.84375 C123.488281,82.0052083 123.710938,82.0859375 124.007812,82.0859375 Z M132.984375,82 L132.984375,77.546875 L135.664062,77.546875 C136.950521,77.546875 137.938802,77.2486979 138.628906,76.6523438 C139.31901,76.0559896 139.664062,75.2057292 139.664062,74.1015625 C139.664062,73.0546875 139.311198,72.2135417 138.605469,71.578125 C137.89974,70.9427083 136.924479,70.625 135.679688,70.625 L135.679688,70.625 L131.484375,70.625 L131.484375,82 L132.984375,82 Z M135.679688,76.3203125 L132.984375,76.3203125 L132.984375,71.859375 L135.765625,71.859375 C136.510417,71.875 137.096354,72.0859375 137.523438,72.4921875 C137.950521,72.8984375 138.164062,73.4401042 138.164062,74.1171875 C138.164062,74.8307292 137.950521,75.3763021 137.523438,75.7539062 C137.096354,76.1315104 136.481771,76.3203125 135.679688,76.3203125 L135.679688,76.3203125 Z M143.960938,82.15625 C144.893229,82.15625 145.695312,81.8072917 146.367188,81.109375 C146.419271,81.5364583 146.486979,81.8333333 146.570312,82 L146.570312,82 L148.085938,82 L148.085938,81.875 C147.888021,81.4166667 147.789062,80.7994792 147.789062,80.0234375 L147.789062,80.0234375 L147.789062,76.1328125 C147.768229,75.2786458 147.481771,74.6080729 146.929688,74.1210938 C146.377604,73.6341146 145.614583,73.390625 144.640625,73.390625 C144.026042,73.390625 143.46224,73.5052083 142.949219,73.734375 C142.436198,73.9635417 142.029948,74.2747396 141.730469,74.6679688 C141.43099,75.0611979 141.28125,75.46875 141.28125,75.890625 L141.28125,75.890625 L142.734375,75.890625 C142.734375,75.5208333 142.908854,75.2057292 143.257812,74.9453125 C143.606771,74.6848958 144.039062,74.5546875 144.554688,74.5546875 C145.143229,74.5546875 145.588542,74.7044271 145.890625,75.0039062 C146.192708,75.3033854 146.34375,75.7057292 146.34375,76.2109375 L146.34375,76.2109375 L146.34375,76.875 L144.9375,76.875 C143.723958,76.875 142.782552,77.1184896 142.113281,77.6054688 C141.44401,78.0924479 141.109375,78.7760417 141.109375,79.65625 C141.109375,80.3802083 141.376302,80.9778646 141.910156,81.4492188 C142.44401,81.9205729 143.127604,82.15625 143.960938,82.15625 Z M144.171875,80.8984375 C143.697917,80.8984375 143.309896,80.7708333 143.007812,80.515625 C142.705729,80.2604167 142.554688,79.90625 142.554688,79.453125 C142.554688,78.4166667 143.440104,77.8984375 145.210938,77.8984375 L145.210938,77.8984375 L146.34375,77.8984375 L146.34375,79.6328125 C146.161458,80.0078125 145.867188,80.3125 145.460938,80.546875 C145.054688,80.78125 144.625,80.8984375 144.171875,80.8984375 Z M152.523438,82.15625 C152.882812,82.15625 153.252604,82.1041667 153.632812,82 L153.632812,82 L153.632812,80.828125 C153.341146,80.890625 153.111979,80.921875 152.945312,80.921875 C152.606771,80.921875 152.367188,80.8372396 152.226562,80.6679688 C152.085938,80.4986979 152.015625,80.2447917 152.015625,79.90625 L152.015625,79.90625 L152.015625,74.6640625 L153.59375,74.6640625 L153.59375,73.546875 L152.015625,73.546875 L152.015625,71.5 L150.570312,71.5 L150.570312,73.546875 L149.03125,73.546875 L149.03125,74.6640625 L150.570312,74.6640625 L150.570312,79.90625 C150.570312,80.625 150.734375,81.1796875 151.0625,81.5703125 C151.390625,81.9609375 151.877604,82.15625 152.523438,82.15625 Z M156.726562,82 L156.726562,76 C157.065104,75.1927083 157.708333,74.7890625 158.65625,74.7890625 C158.911458,74.7890625 159.148438,74.8072917 159.367188,74.84375 L159.367188,74.84375 L159.367188,73.5 C159.221354,73.4270833 159.007812,73.390625 158.726562,73.390625 C157.856771,73.390625 157.184896,73.7682292 156.710938,74.5234375 L156.710938,74.5234375 L156.6875,73.546875 L155.28125,73.546875 L155.28125,82 L156.726562,82 Z M161.554688,72.125 C161.835938,72.125 162.049479,72.046875 162.195312,71.890625 C162.341146,71.734375 162.414062,71.5390625 162.414062,71.3046875 C162.414062,71.0703125 162.341146,70.8723958 162.195312,70.7109375 C162.049479,70.5494792 161.835938,70.46875 161.554688,70.46875 C161.273438,70.46875 161.061198,70.5494792 160.917969,70.7109375 C160.77474,70.8723958 160.703125,71.0703125 160.703125,71.3046875 C160.703125,71.5390625 160.77474,71.734375 160.917969,71.890625 C161.061198,72.046875 161.273438,72.125 161.554688,72.125 Z M162.265625,82 L162.265625,73.546875 L160.820312,73.546875 L160.820312,82 L162.265625,82 Z M167.96875,82.15625 C168.541667,82.15625 169.084635,82.0260417 169.597656,81.765625 C170.110677,81.5052083 170.520833,81.15625 170.828125,80.71875 C171.135417,80.28125 171.302083,79.8203125 171.328125,79.3359375 L171.328125,79.3359375 L169.960938,79.3359375 C169.919271,79.8046875 169.705729,80.1953125 169.320312,80.5078125 C168.934896,80.8203125 168.484375,80.9765625 167.96875,80.9765625 C167.223958,80.9765625 166.651042,80.7135417 166.25,80.1875 C165.848958,79.6614583 165.648438,78.9114583 165.648438,77.9375 L165.648438,77.9375 L165.648438,77.6640625 C165.648438,76.6640625 165.85026,75.8997396 166.253906,75.3710938 C166.657552,74.8424479 167.226562,74.578125 167.960938,74.578125 C168.507812,74.578125 168.967448,74.7539062 169.339844,75.1054688 C169.71224,75.4570312 169.919271,75.90625 169.960938,76.453125 L169.960938,76.453125 L171.328125,76.453125 C171.286458,75.546875 170.951823,74.8098958 170.324219,74.2421875 C169.696615,73.6744792 168.908854,73.390625 167.960938,73.390625 C167.190104,73.390625 166.522135,73.5677083 165.957031,73.921875 C165.391927,74.2760417 164.958333,74.7734375 164.65625,75.4140625 C164.354167,76.0546875 164.203125,76.7864583 164.203125,77.609375 L164.203125,77.609375 L164.203125,77.8515625 C164.203125,79.1848958 164.542969,80.2356771 165.222656,81.0039062 C165.902344,81.7721354 166.817708,82.15625 167.96875,82.15625 Z M174.40625,82 L174.40625,79.03125 L175.3125,78.0859375 L178.257812,82 L179.953125,82 L176.28125,77.078125 L179.570312,73.546875 L177.8125,73.546875 L175.179688,76.328125 L174.40625,77.2578125 L174.40625,70 L172.960938,70 L172.960938,82 L174.40625,82 Z M189.195312,82 C190.403646,82 191.338542,81.7083333 192,81.125 C192.661458,80.5416667 192.992188,79.7395833 192.992188,78.71875 C192.992188,78.0520833 192.813802,77.4778646 192.457031,76.9960938 C192.10026,76.5143229 191.614583,76.1875 191,76.015625 C191.520833,75.7916667 191.932292,75.4752604 192.234375,75.0664062 C192.536458,74.6575521 192.6875,74.1875 192.6875,73.65625 C192.6875,72.65625 192.376302,71.9010417 191.753906,71.390625 C191.13151,70.8802083 190.203125,70.625 188.96875,70.625 L188.96875,70.625 L185.25,70.625 L185.25,82 L189.195312,82 Z M189.015625,75.4765625 L186.75,75.4765625 L186.75,71.859375 L188.96875,71.859375 C189.713542,71.859375 190.268229,72.0013021 190.632812,72.2851562 C190.997396,72.5690104 191.179688,73.0234375 191.179688,73.6484375 C191.179688,74.2109375 190.983073,74.65625 190.589844,74.984375 C190.196615,75.3125 189.671875,75.4765625 189.015625,75.4765625 L189.015625,75.4765625 Z M189.226562,80.7734375 L186.75,80.7734375 L186.75,76.6796875 L189.25,76.6796875 C190.739583,76.6796875 191.484375,77.3645833 191.484375,78.734375 C191.484375,79.3697917 191.282552,79.8684896 190.878906,80.2304688 C190.47526,80.5924479 189.924479,80.7734375 189.226562,80.7734375 L189.226562,80.7734375 Z M196.429688,82 L196.429688,76 C196.768229,75.1927083 197.411458,74.7890625 198.359375,74.7890625 C198.614583,74.7890625 198.851562,74.8072917 199.070312,74.84375 L199.070312,74.84375 L199.070312,73.5 C198.924479,73.4270833 198.710938,73.390625 198.429688,73.390625 C197.559896,73.390625 196.888021,73.7682292 196.414062,74.5234375 L196.414062,74.5234375 L196.390625,73.546875 L194.984375,73.546875 L194.984375,82 L196.429688,82 Z M203.90625,82.15625 C205.322917,82.15625 206.385417,81.6119792 207.09375,80.5234375 L207.09375,80.5234375 L206.210938,79.8359375 C205.945312,80.1796875 205.635417,80.4557292 205.28125,80.6640625 C204.927083,80.8723958 204.494792,80.9765625 203.984375,80.9765625 C203.265625,80.9765625 202.673177,80.7200521 202.207031,80.2070312 C201.740885,79.6940104 201.497396,79.0208333 201.476562,78.1875 L201.476562,78.1875 L207.203125,78.1875 L207.203125,77.5859375 C207.203125,76.2369792 206.898438,75.2005208 206.289062,74.4765625 C205.679688,73.7526042 204.825521,73.390625 203.726562,73.390625 C203.054688,73.390625 202.43099,73.5768229 201.855469,73.9492188 C201.279948,74.3216146 200.832031,74.8372396 200.511719,75.4960938 C200.191406,76.1549479 200.03125,76.9036458 200.03125,77.7421875 L200.03125,77.7421875 L200.03125,78.0078125 C200.03125,79.2682292 200.390625,80.2747396 201.109375,81.0273438 C201.828125,81.7799479 202.760417,82.15625 203.90625,82.15625 Z M205.757812,77 L201.523438,77 C201.617188,76.234375 201.861979,75.6393229 202.257812,75.2148438 C202.653646,74.7903646 203.143229,74.578125 203.726562,74.578125 C204.330729,74.578125 204.809896,74.7799479 205.164062,75.1835938 C205.518229,75.5872396 205.716146,76.15625 205.757812,76.890625 L205.757812,76.890625 L205.757812,77 Z M210.320312,82 L210.320312,75.9765625 C210.518229,75.5703125 210.794271,75.2421875 211.148438,74.9921875 C211.502604,74.7421875 211.914062,74.6171875 212.382812,74.6171875 C212.960938,74.6171875 213.386719,74.7630208 213.660156,75.0546875 C213.933594,75.3463542 214.072917,75.796875 214.078125,76.40625 L214.078125,76.40625 L214.078125,82 L215.523438,82 L215.523438,76.4140625 C215.507812,74.3984375 214.606771,73.390625 212.820312,73.390625 C211.778646,73.390625 210.934896,73.796875 210.289062,74.609375 L210.289062,74.609375 L210.242188,73.546875 L208.875,73.546875 L208.875,82 L210.320312,82 Z M220.671875,82.15625 C221.703125,82.15625 222.507812,81.8020833 223.085938,81.09375 L223.085938,81.09375 L223.15625,82 L224.484375,82 L224.484375,70 L223.039062,70 L223.039062,74.40625 C222.460938,73.7291667 221.677083,73.390625 220.6875,73.390625 C219.692708,73.390625 218.888021,73.7851562 218.273438,74.5742188 C217.658854,75.3632812 217.351562,76.40625 217.351562,77.703125 L217.351562,77.703125 L217.351562,77.8125 C217.351562,79.1041667 217.660156,80.1510417 218.277344,80.953125 C218.894531,81.7552083 219.692708,82.15625 220.671875,82.15625 Z M221.03125,80.9296875 C220.333333,80.9296875 219.786458,80.6588542 219.390625,80.1171875 C218.994792,79.5755208 218.796875,78.8255208 218.796875,77.8671875 C218.796875,76.7942708 218.994792,75.984375 219.390625,75.4375 C219.786458,74.890625 220.338542,74.6171875 221.046875,74.6171875 C221.942708,74.6171875 222.606771,75.015625 223.039062,75.8125 L223.039062,75.8125 L223.039062,79.6953125 C222.617188,80.5182292 221.947917,80.9296875 221.03125,80.9296875 Z M230.234375,82.15625 C231.651042,82.15625 232.713542,81.6119792 233.421875,80.5234375 L233.421875,80.5234375 L232.539062,79.8359375 C232.273438,80.1796875 231.963542,80.4557292 231.609375,80.6640625 C231.255208,80.8723958 230.822917,80.9765625 230.3125,80.9765625 C229.59375,80.9765625 229.001302,80.7200521 228.535156,80.2070312 C228.06901,79.6940104 227.825521,79.0208333 227.804688,78.1875 L227.804688,78.1875 L233.53125,78.1875 L233.53125,77.5859375 C233.53125,76.2369792 233.226562,75.2005208 232.617188,74.4765625 C232.007812,73.7526042 231.153646,73.390625 230.054688,73.390625 C229.382812,73.390625 228.759115,73.5768229 228.183594,73.9492188 C227.608073,74.3216146 227.160156,74.8372396 226.839844,75.4960938 C226.519531,76.1549479 226.359375,76.9036458 226.359375,77.7421875 L226.359375,77.7421875 L226.359375,78.0078125 C226.359375,79.2682292 226.71875,80.2747396 227.4375,81.0273438 C228.15625,81.7799479 229.088542,82.15625 230.234375,82.15625 Z M232.085938,77 L227.851562,77 C227.945312,76.234375 228.190104,75.6393229 228.585938,75.2148438 C228.981771,74.7903646 229.471354,74.578125 230.054688,74.578125 C230.658854,74.578125 231.138021,74.7799479 231.492188,75.1835938 C231.846354,75.5872396 232.044271,76.15625 232.085938,76.890625 L232.085938,76.890625 L232.085938,77 Z M236.773438,82 L236.773438,70 L235.328125,70 L235.328125,82 L236.773438,82 Z M246.554688,82.15625 C247.971354,82.15625 249.033854,81.6119792 249.742188,80.5234375 L249.742188,80.5234375 L248.859375,79.8359375 C248.59375,80.1796875 248.283854,80.4557292 247.929688,80.6640625 C247.575521,80.8723958 247.143229,80.9765625 246.632812,80.9765625 C245.914062,80.9765625 245.321615,80.7200521 244.855469,80.2070312 C244.389323,79.6940104 244.145833,79.0208333 244.125,78.1875 L244.125,78.1875 L249.851562,78.1875 L249.851562,77.5859375 C249.851562,76.2369792 249.546875,75.2005208 248.9375,74.4765625 C248.328125,73.7526042 247.473958,73.390625 246.375,73.390625 C245.703125,73.390625 245.079427,73.5768229 244.503906,73.9492188 C243.928385,74.3216146 243.480469,74.8372396 243.160156,75.4960938 C242.839844,76.1549479 242.679688,76.9036458 242.679688,77.7421875 L242.679688,77.7421875 L242.679688,78.0078125 C242.679688,79.2682292 243.039062,80.2747396 243.757812,81.0273438 C244.476562,81.7799479 245.408854,82.15625 246.554688,82.15625 Z M248.40625,77 L244.171875,77 C244.265625,76.234375 244.510417,75.6393229 244.90625,75.2148438 C245.302083,74.7903646 245.791667,74.578125 246.375,74.578125 C246.979167,74.578125 247.458333,74.7799479 247.8125,75.1835938 C248.166667,75.5872396 248.364583,76.15625 248.40625,76.890625 L248.40625,76.890625 L248.40625,77 Z M252.445312,82.0859375 C252.742188,82.0859375 252.967448,82.0052083 253.121094,81.84375 C253.27474,81.6822917 253.351562,81.4817708 253.351562,81.2421875 C253.351562,80.9921875 253.27474,80.7838542 253.121094,80.6171875 C252.967448,80.4505208 252.742188,80.3671875 252.445312,80.3671875 C252.148438,80.3671875 251.925781,80.4505208 251.777344,80.6171875 C251.628906,80.7838542 251.554688,80.9921875 251.554688,81.2421875 C251.554688,81.4817708 251.628906,81.6822917 251.777344,81.84375 C251.925781,82.0052083 252.148438,82.0859375 252.445312,82.0859375 Z M257.460938,82 L257.460938,78.15625 L258.851562,76.7109375 L262.882812,82 L264.679688,82 L259.851562,75.6484375 L264.328125,70.625 L262.515625,70.625 L257.460938,76.25 L257.460938,70.625 L255.960938,70.625 L255.960938,82 L257.460938,82 Z M266.6875,82.0859375 C266.984375,82.0859375 267.209635,82.0052083 267.363281,81.84375 C267.516927,81.6822917 267.59375,81.4817708 267.59375,81.2421875 C267.59375,80.9921875 267.516927,80.7838542 267.363281,80.6171875 C267.209635,80.4505208 266.984375,80.3671875 266.6875,80.3671875 C266.390625,80.3671875 266.167969,80.4505208 266.019531,80.6171875 C265.871094,80.7838542 265.796875,80.9921875 265.796875,81.2421875 C265.796875,81.4817708 265.871094,81.6822917 266.019531,81.84375 C266.167969,82.0052083 266.390625,82.0859375 266.6875,82.0859375 Z" id="Inh.PatrickBrendele.K." fill="#003996" fill-rule="nonzero"></path>
        <g id="Zeichenflache-1" fill="#003996" fill-rule="nonzero">
            <path d="M43.0166667,1.9760892 C37.5193559,1.96675757 32.0803895,3.10284201 27.0464818,5.31197901 C22.157931,7.45224888 17.7670865,10.5158771 13.9958171,14.4214693 C10.2240413,18.3250329 7.23467599,22.9147654 5.18922039,27.9427086 C3.0453923,33.1928636 1.95702149,38.7672614 1.95702149,44.5146777 C1.95702149,50.262094 3.04405797,55.8364918 5.18744128,61.0830885 C7.23289688,66.1110317 10.2222622,70.7007642 13.994038,74.6043278 C17.7653073,78.5085857 22.1561519,81.5735482 27.0447026,83.7138181 C37.2266291,88.1639645 48.8035907,88.1639645 58.9855172,83.7138181 C63.8736232,81.5735482 68.2644678,78.50992 72.0357371,74.6043278 C75.8075129,70.7007642 78.7968782,66.1110317 80.8423338,61.0830885 C82.9861619,55.8347126 84.0731984,50.2616492 84.0731984,44.5146777 C84.0731984,38.7677061 82.9861619,33.1928636 80.8423338,27.9462669 C78.7968782,22.9183237 75.8075129,18.3285911 72.0357371,14.4250275 C68.2644678,10.5207696 63.8736232,7.4558071 58.9855172,5.31553723 C53.9514524,3.10640206 48.5123414,1.97031907 43.0148876,1.97970515 M43.0148876,88.988476 C37.2511665,88.9964636 31.5489738,87.8037352 26.2716792,85.4862569 C21.1513993,83.2445777 16.5537331,80.0355072 12.6063318,75.9493353 C8.66310422,71.8689902 5.53784327,67.0711863 3.39943528,61.8151924 C1.16175912,56.3337531 0.0266866567,50.5133933 0.0266866567,44.5146777 C0.0266866567,38.515962 1.16175912,32.6956022 3.40076962,27.2154973 C5.5391776,21.9595034 8.66443856,17.1616994 12.6076662,13.0813543 C16.5550675,8.99518241 21.1527336,5.7870015 26.2730135,3.54443278 C36.9492103,-1.12242062 49.0885708,-1.12242062 59.7647676,3.54443278 C64.8846027,5.78611194 69.4822689,8.99518241 73.4296702,13.0813543 C77.3728978,17.1616994 80.4981587,21.9595034 82.6365667,27.2154973 C84.8755772,32.6956022 86.0110945,38.5155172 86.0110945,44.5146777 C86.0110945,50.5138381 84.8755772,56.3337531 82.6365667,61.8138581 C80.4981587,67.0698519 77.3728978,71.8676559 73.4296702,75.948001 C69.4822689,80.0341729 64.8846027,83.2423538 59.7647676,85.4849225 C54.4865869,87.801827 48.7836357,88.9937981 43.0193353,88.9848776" id="Shape"></path>
            <path d="M18.1322489,66.7428836 C26.8098601,52.8564818 31.5169415,42.6506147 31.5169415,32.1938931 C31.5169415,24.4992404 28.8972014,19.1441179 25.0903498,19.1441179 C22.3073763,19.1441179 18.4596052,22.4901799 15.0623938,28.9318941 C11.8288606,35.0382459 10.2321089,40.9778061 10.2321089,45.5785857 C10.2321089,50.5156172 11.8697801,53.6090455 14.4072364,53.6090455 C18.3777661,53.6090455 22.511974,45.9143928 22.511974,35.2891004 C22.511974,30.1025487 21.9782409,26.7564868 21.4067016,26.7564868 C21.2430235,26.7564868 21.1202649,27.0914043 21.1202649,27.7603498 C21.1202649,28.2625037 21.2430235,29.0150675 21.2430235,29.9353123 C21.2430235,33.5326737 20.7092904,36.7951174 19.7694753,40.0575612 C17.6002949,47.5863118 14.9396352,51.6853823 13.466087,51.6853823 C12.0743778,51.6853823 10.9281859,49.2591204 10.9281859,45.5785857 C10.9281859,41.7303698 12.238056,36.9623538 14.8577961,31.6921839 C18.4186857,24.497906 22.1432534,20.9846077 24.4356372,20.9846077 C26.5234233,20.9846077 27.6691704,23.4104248 27.6691704,27.5931134 C27.6691704,36.7110545 24.5174763,47.4190755 18.746042,61.1382409 C15.9626237,67.7467466 14.4481559,70.0053273 14.4481559,71.0928086 C14.4481559,71.759975 14.6118341,72.0130535 15.0623938,72.0130535 C15.307911,72.0130535 19.4830385,67.9976012 25.2544728,58.8792154 C33.6452024,45.6622039 37.8612494,33.2813743 40.7674263,27.175912 C35.5688656,41.564023 31.476022,51.015992 31.476022,62.1425487 C31.476022,67.579955 32.6222139,71.5117891 33.7270415,71.5117891 C35.4461069,71.5117891 36.3067516,62.5610845 40.3173113,50.0966367 C45.26991,34.6210445 49.7314743,31.2749825 49.7314743,30.0198201 C49.7314743,29.8525837 49.6496352,29.6853473 49.485957,29.6853473 C49.0763168,29.6853473 46.3342629,32.9477911 43.348026,39.8912144 C39.8276112,47.9216742 37.0851124,57.2072964 34.6303848,67.9148726 C34.9986607,61.2227486 37.2501249,51.3513543 40.1149375,37.0473063 C42.3254823,26.0052574 43.5944328,20.8187056 43.5944328,20.4001699 C43.5944328,19.9816342 43.3898351,19.563988 43.1438731,19.563988 C42.6546177,19.563988 41.2202099,23.913913 37.4951974,32.7809995 C30.7004781,48.9258337 24.2469032,60.2469065 18.1344728,66.7442179" id="Path"></path>
            <path d="M72.5201,22.4065617 C69.2042829,24.2470515 65.2341979,31.1904748 61.8365417,42.3161419 C59.4218441,50.2629835 57.7445877,58.1266517 55.5331534,63.7312944 C53.8550075,67.9976012 52.135942,70.0053273 49.8030835,70.0053273 C47.1833433,70.0053273 45.3824388,67.6631284 45.3824388,65.2368666 C45.3824388,62.8946677 46.3235882,62.8110495 48.0017341,62.5601949 C48.6978111,62.4765767 49.4752824,60.9705597 49.4752824,58.5447426 C49.4752824,56.2025437 48.4932134,54.4456722 47.0605847,54.4456722 C45.1364768,54.4456722 43.5401699,57.6244978 43.5401699,61.8908046 C43.5401699,67.4118291 46.0371514,71.3436632 50.0895202,71.3436632 C57.2949175,71.3436632 61.9206047,63.3127586 65.3569565,47.4190755 C67.8130185,36.0421089 68.6314093,26.422014 73.2157321,23.1595702 C73.9118091,24.4142879 74.3210045,26.3383958 74.3210045,28.6805947 C74.3210045,36.8787356 71.1283908,44.5747226 69.2861219,44.5747226 C68.3449725,44.5747226 67.6898151,44.1566317 67.3624588,44.1566317 C66.8732034,44.1566317 66.625907,44.6583408 66.625907,45.2441129 C66.625907,45.9112794 66.9532634,46.4988306 67.5261369,46.4988306 C68.2222139,46.4988306 68.7132484,46.1643578 69.1224438,46.1643578 C69.9412794,46.1643578 70.6369115,48.3393203 70.6369115,51.2668466 C70.6369115,55.0314443 69.8594403,59.2977511 68.304053,63.9821489 C66.9123438,68.1630585 65.6433933,70.2561819 64.4153623,70.2561819 C63.4328486,70.2561819 62.8190555,68.8328936 62.8190555,66.6592654 C62.8190555,61.3054773 66.0935082,59.1305147 66.0935082,58.1266517 C66.0935082,57.7917341 65.9298301,57.5408796 65.7252324,57.5408796 C65.1114393,57.5408796 62.0006647,61.8071864 62.0006647,66.7428836 C62.0006647,70.0889455 63.1873313,72.0966717 65.4387956,72.0966717 C69.7776012,72.0966717 74.361924,63.8149125 74.361924,55.9512444 C74.361924,50.5974563 72.9292954,47.0837131 69.9821989,45.3272864 C75.1393953,42.6501699 77.8818941,37.6326337 77.8818941,31.7753573 C77.8818941,28.0112044 76.6538631,24.5810795 74.4028436,22.5737981 C75.8763918,21.8207896 76.572024,21.988026 76.572024,21.0677811 C76.572024,20.7333083 76.4083458,20.566072 76.121909,20.566072 C75.8763918,20.566072 74.9347976,20.9841629 73.3794103,21.8207896 C71.292069,19.8966817 69.2874563,19.1436732 66.9941829,19.1436732 C62.1643428,19.1436732 57.1294603,22.0716442 53.363973,26.8383258 C49.8435582,31.2723138 48.0835732,36.542039 48.0835732,40.8083458 C48.0835732,45.4931884 50.0481559,49.1737231 53.1593753,49.1737231 C57.58002,49.1737231 61.5501049,41.6449725 61.5501049,31.355932 C61.5501049,29.1809695 61.5091854,28.0098701 61.09999,28.0098701 C60.6107346,28.0098701 60.9772314,30.4356872 59.9537981,34.4511394 C58.1938131,41.3104998 54.2642029,46.4134333 51.6449075,46.4134333 C49.8435582,46.4134333 48.7796502,44.2384708 48.7796502,41.0596452 C48.7796502,37.7135832 50.4987156,32.2761769 53.814088,28.0098701 C57.4981809,23.3250275 62.5317291,20.3152174 66.7077461,20.3152174 C69.1633633,20.3152174 71.0874713,21.0682259 72.5201,22.4056722" id="Path"></path>
        </g>
    </g>
</svg>