<?xml version="1.0" standalone="no"?>
<!DOCTYPE svg PUBLIC "-//W3C//DTD SVG 20010904//EN"
 "http://www.w3.org/TR/2001/REC-SVG-20010904/DTD/svg10.dtd">
<svg version="1.0" xmlns="http://www.w3.org/2000/svg"
 width="540.000000pt" height="540.000000pt" viewBox="0 0 540.000000 540.000000"
 preserveAspectRatio="xMidYMid meet">
<metadata>
Created by potrace 1.11, written by Peter Selinger 2001-2013
</metadata>
<g transform="translate(0.000000,540.000000) scale(0.100000,-0.100000)"
fill="#000000" stroke="none">
<path d="M2499 5396 c-3 -3 -52 -9 -159 -21 -43 -4 -203 -36 -256 -51 -28 -8
-60 -16 -70 -19 -11 -2 -38 -10 -62 -19 -23 -8 -43 -15 -45 -15 -1 0 -9 -2
-17 -4 -193 -62 -451 -191 -640 -321 -47 -33 -121 -87 -130 -96 -3 -3 -32 -27
-65 -54 -62 -51 -298 -285 -325 -322 -8 -11 -54 -72 -101 -135 -95 -127 -143
-202 -212 -330 -52 -95 -148 -309 -140 -309 3 0 1 -6 -5 -12 -31 -38 -126
-399 -152 -573 -26 -177 -35 -549 -17 -695 5 -36 10 -78 11 -95 9 -88 55 -297
93 -425 77 -255 193 -502 341 -725 47 -71 91 -135 96 -141 6 -6 22 -26 36 -44
47 -62 95 -115 210 -230 133 -133 160 -157 255 -228 39 -28 76 -57 83 -63 67
-57 335 -205 477 -264 50 -21 104 -44 121 -51 76 -33 343 -102 461 -120 21 -3
49 -7 63 -10 80 -14 177 -19 355 -19 211 1 299 7 417 31 15 3 39 7 55 9 48 6
197 44 259 65 32 12 59 20 59 20 0 -11 244 90 353 146 130 68 315 180 320 195
2 5 8 9 13 9 6 0 42 26 81 57 39 32 80 65 91 73 26 18 249 239 298 295 19 22
57 69 84 105 27 36 52 67 55 70 3 3 34 50 69 105 35 55 72 111 81 125 38 56
161 323 204 443 26 71 62 192 82 270 37 151 39 165 50 242 3 28 8 59 10 70 26
124 24 615 -2 749 -2 11 -7 41 -10 66 -3 25 -8 52 -9 60 -93 452 -256 819
-518 1165 -82 108 -94 121 -237 265 -147 148 -241 226 -393 326 -62 41 -116
77 -122 81 -25 19 -239 125 -320 159 -136 56 -319 113 -450 140 -66 14 -107
21 -170 29 -27 4 -63 9 -80 12 -35 5 -471 13 -476 9z m391 -121 c47 -3 92 -8
100 -10 8 -3 40 -7 70 -10 30 -3 71 -10 90 -15 19 -5 49 -11 65 -14 80 -13
259 -67 379 -115 101 -41 270 -122 274 -133 2 -4 7 -6 12 -3 4 3 13 -2 20 -10
7 -8 19 -15 26 -15 8 0 14 -4 14 -10 0 -5 4 -10 10 -10 19 0 227 -143 304
-210 159 -136 251 -233 422 -443 8 -9 14 -21 14 -26 0 -5 7 -14 15 -21 24 -20
143 -215 201 -329 91 -182 197 -471 219 -605 3 -17 10 -47 15 -66 4 -19 11
-53 14 -75 3 -22 7 -49 10 -61 4 -20 15 -125 22 -209 8 -108 2 -408 -10 -481
-3 -16 -8 -54 -11 -84 -3 -30 -8 -62 -11 -71 -2 -10 -7 -30 -9 -45 -6 -44 -13
-73 -35 -160 -12 -43 -22 -86 -24 -94 -2 -8 -16 -49 -30 -92 -195 -577 -576
-1064 -1074 -1371 -193 -120 -479 -246 -637 -282 -11 -2 -49 -11 -85 -20 -35
-9 -74 -18 -85 -20 -11 -2 -20 -4 -20 -5 0 -1 -13 -3 -30 -5 -55 -7 -108 -14
-144 -20 -126 -20 -453 -20 -571 0 -14 2 -43 7 -65 9 -22 3 -51 8 -65 11 -14
3 -41 8 -60 11 -121 21 -330 87 -478 150 -224 96 -482 259 -646 407 -310 282
-529 585 -678 937 -50 118 -119 326 -134 403 -2 10 -5 26 -8 35 -6 18 -11 48
-27 132 -18 105 -25 158 -34 265 -5 66 -6 364 -1 390 2 11 7 58 11 105 11 126
11 127 35 235 12 55 23 110 26 121 13 64 61 214 104 324 156 396 403 746 711
1010 41 35 76 67 77 72 2 4 10 8 17 8 7 0 15 4 17 9 6 15 169 126 278 189 89
52 191 101 325 157 65 28 175 64 175 59 0 -4 6 -2 13 4 11 9 197 56 262 66 80
12 122 19 140 22 11 2 74 7 140 10 66 4 121 7 122 8 3 2 140 -3 223 -9z"/>
<path d="M1533 4226 c-17 -6 -35 -14 -39 -18 -4 -5 -15 -8 -25 -8 -9 0 -19 -3
-21 -7 -1 -5 -20 -20 -42 -35 -181 -125 -390 -437 -535 -800 -70 -176 -109
-313 -148 -523 -3 -16 -6 -97 -8 -178 -2 -116 1 -166 16 -234 84 -385 385
-359 574 50 30 64 71 177 80 217 1 8 8 33 13 55 10 37 15 64 28 150 3 17 7 36
9 43 24 69 24 574 0 692 -2 14 -7 42 -9 64 -6 41 -33 92 -44 81 -4 -4 -8 -93
-8 -198 -1 -106 -4 -210 -8 -232 -4 -22 -9 -58 -12 -80 -7 -45 -11 -69 -19
-105 -3 -14 -7 -35 -10 -47 -2 -13 -15 -65 -29 -117 -91 -334 -247 -654 -347
-715 -78 -48 -154 36 -183 204 -14 79 -14 222 -1 320 53 387 341 972 594 1207
171 159 305 151 371 -20 30 -78 34 -119 34 -302 -1 -169 -10 -290 -30 -390 -2
-14 -6 -38 -8 -55 -3 -16 -11 -64 -20 -105 -8 -41 -17 -86 -20 -100 -2 -14 -9
-45 -16 -70 -7 -25 -13 -49 -15 -55 -48 -213 -244 -790 -358 -1055 -5 -14 -11
-27 -12 -30 -1 -3 -9 -22 -18 -44 -9 -21 -17 -40 -17 -42 0 -2 -11 -27 -24
-56 -14 -29 -39 -87 -57 -128 -17 -41 -50 -113 -72 -160 -138 -293 -143 -307
-123 -352 16 -36 42 -18 162 113 148 162 445 584 615 876 77 132 155 273 209
378 34 66 66 127 71 135 9 16 105 218 144 305 71 155 124 276 220 505 146 346
169 387 73 130 -108 -291 -255 -708 -263 -745 -3 -11 -9 -31 -14 -45 -6 -14
-24 -74 -41 -135 -17 -60 -35 -124 -41 -142 -5 -18 -12 -40 -14 -50 -1 -10
-14 -72 -28 -138 -49 -231 -62 -356 -61 -595 0 -224 8 -311 41 -430 49 -176
107 -195 162 -52 16 43 32 90 35 103 3 13 10 42 16 64 6 22 13 51 16 65 3 14
10 43 16 65 6 22 13 47 14 55 2 8 24 96 49 195 25 99 48 191 51 205 3 14 11
45 19 70 8 25 28 95 45 155 57 199 165 521 200 600 5 11 18 43 29 71 28 73 55
131 128 279 78 159 94 187 199 349 79 121 99 166 73 166 -56 0 -283 -382 -399
-671 -10 -26 -28 -66 -38 -90 -11 -24 -30 -71 -41 -104 -12 -33 -26 -69 -31
-80 -5 -11 -18 -47 -30 -80 -11 -33 -23 -67 -27 -75 -3 -8 -7 -19 -8 -25 -2
-5 -18 -57 -38 -115 -58 -178 -144 -468 -162 -545 -2 -11 -12 -47 -21 -80 -9
-33 -18 -68 -20 -78 -2 -10 -6 -27 -9 -37 -3 -10 -7 -27 -9 -37 -3 -10 -14
-54 -25 -97 -12 -44 -21 -87 -21 -96 0 -9 -7 -25 -15 -36 -9 -12 -13 -13 -11
-4 3 8 7 40 10 70 3 30 8 71 11 90 12 86 37 253 41 273 2 12 7 38 10 57 3 19
7 42 9 50 2 8 7 33 10 55 3 23 8 52 11 65 3 14 8 39 11 55 8 46 11 60 13 60 1
0 3 9 4 20 2 18 8 49 20 110 2 11 12 56 21 100 9 44 19 91 21 105 3 14 12 59
20 100 9 41 18 86 20 100 3 14 7 32 9 40 3 8 7 33 11 55 3 22 12 67 19 100 8
33 16 73 19 89 5 27 17 89 32 156 7 36 33 169 39 199 3 14 12 58 20 96 8 39
29 135 45 215 17 80 32 154 35 165 2 11 11 54 20 95 9 41 19 84 21 95 2 11 12
60 23 108 10 48 18 93 17 100 -3 20 -16 37 -29 37 -13 0 -19 -13 -74 -145 -18
-44 -37 -89 -42 -100 -5 -11 -24 -58 -42 -105 -18 -47 -37 -89 -41 -94 -4 -6
-8 -15 -8 -22 0 -6 -10 -33 -22 -60 -12 -27 -23 -51 -23 -54 -2 -8 -16 -43
-25 -65 -5 -11 -48 -112 -96 -225 -48 -113 -104 -242 -125 -288 -22 -45 -39
-84 -39 -86 0 -3 -128 -271 -177 -371 -41 -84 -167 -323 -203 -385 -21 -36
-47 -81 -57 -100 -27 -47 -115 -193 -125 -205 -4 -5 -31 -46 -60 -90 -51 -79
-143 -210 -163 -231 -5 -6 -19 -23 -30 -39 -11 -16 -36 -47 -55 -69 -20 -23
-48 -56 -63 -74 -15 -19 -27 -31 -27 -28 0 7 39 76 60 106 17 25 29 45 113
188 23 40 47 81 52 90 6 10 28 49 49 87 22 39 48 86 59 105 128 228 284 588
354 815 23 75 27 90 37 140 2 11 9 38 14 60 13 46 19 81 28 145 3 25 8 54 10
64 7 39 17 193 17 271 0 371 -103 664 -269 761 -51 30 -148 40 -201 20z"/>
<path d="M4049 4235 c-2 -2 -22 -6 -44 -9 -107 -17 -279 -94 -399 -180 -72
-51 -213 -186 -273 -261 -107 -133 -206 -315 -262 -480 -34 -102 -37 -115 -59
-265 -16 -113 -2 -269 34 -378 51 -154 158 -247 277 -241 153 8 300 165 392
419 26 72 29 83 40 131 2 11 7 30 11 42 4 12 8 31 10 42 2 11 10 56 18 100 22
122 36 431 22 500 -3 11 -5 26 -5 33 -2 22 -31 13 -32 -10 0 -13 -2 -31 -4
-41 -2 -10 -6 -49 -9 -87 -5 -59 -14 -112 -30 -185 -33 -153 -103 -336 -180
-470 -22 -38 -42 -72 -46 -75 -3 -3 -13 -16 -22 -31 -34 -53 -124 -142 -172
-170 -130 -74 -227 -5 -261 186 -14 81 -1 257 25 335 4 14 16 52 25 85 54 185
189 420 326 568 172 186 409 334 584 364 138 23 288 1 391 -58 77 -44 81 -51
39 -84 -207 -157 -417 -567 -609 -1187 -25 -80 -47 -158 -50 -172 -3 -14 -7
-29 -10 -34 -2 -4 -18 -59 -35 -122 -17 -63 -44 -164 -61 -225 -16 -60 -32
-119 -34 -130 -3 -11 -23 -83 -45 -160 -23 -77 -43 -148 -46 -158 -17 -74
-107 -311 -151 -403 -84 -176 -179 -263 -286 -266 -49 -1 -109 16 -148 41 -94
61 -149 211 -117 323 14 48 49 72 122 82 73 11 106 80 111 231 10 292 -209
364 -307 102 -13 -34 -25 -69 -26 -77 -2 -8 -6 -28 -9 -45 -11 -52 -12 -285
-2 -328 5 -23 12 -52 14 -65 3 -13 13 -46 23 -73 99 -260 325 -342 591 -212
153 74 312 272 420 525 17 40 37 87 45 103 31 72 137 418 165 540 7 28 13 57
15 65 26 111 55 242 60 270 3 19 11 55 16 80 6 25 13 56 15 70 2 14 10 50 16
80 6 30 12 64 14 75 1 11 12 65 23 120 12 55 24 115 27 134 25 154 107 442
154 544 57 123 163 259 189 243 30 -19 65 -208 64 -351 0 -333 -129 -799 -250
-905 -38 -34 -65 -37 -136 -15 l-48 14 -18 -30 c-35 -58 4 -127 64 -114 17 4
45 8 64 9 31 1 37 -3 58 -45 32 -61 37 -97 37 -274 1 -152 -4 -203 -29 -343
-24 -128 -25 -134 -46 -212 -12 -41 -22 -79 -23 -85 -2 -5 -5 -17 -8 -25 -3
-8 -23 -64 -43 -125 -48 -141 -100 -247 -145 -297 -98 -109 -180 -7 -167 208
3 49 8 100 10 114 14 75 65 184 133 280 44 63 55 86 48 104 -29 75 -171 -148
-220 -343 -21 -86 -23 -101 -24 -196 -1 -164 40 -264 127 -306 113 -55 264 22
390 198 68 96 164 315 188 429 2 11 9 42 15 69 29 128 32 391 6 515 -3 14 -8
34 -10 45 -22 107 -80 211 -163 291 l-63 62 47 27 c89 51 189 143 250 229 12
17 26 36 30 41 37 47 105 215 118 294 3 19 9 39 13 45 10 17 11 294 1 329 -5
17 -11 48 -15 71 -3 22 -12 56 -21 76 -8 19 -16 42 -18 50 -6 28 -75 138 -110
175 l-34 37 60 26 c64 27 85 60 57 88 -12 12 -25 9 -96 -26 l-82 -39 -68 49
c-102 75 -184 102 -313 106 -59 2 -108 1 -110 -1z"/>
</g>
</svg>
